<svg width="1200" height="1000" viewBox="0 0 1200 1000" fill="none" xmlns="http://www.w3.org/2000/svg" font-family="Inter, ui-sans-serif, system-ui, -apple-system, sans-serif">
  <defs>
    <linearGradient id="to-bg" x1="0" y1="0" x2="1200" y2="1000" gradientUnits="userSpaceOnUse">
      <stop offset="0" stop-color="#5B3FD9"/>
      <stop offset="0.5" stop-color="#6D4BE0"/>
      <stop offset="1" stop-color="#8B6BF0"/>
    </linearGradient>
    <radialGradient id="to-glow" cx="0.85" cy="0.1" r="0.9">
      <stop offset="0" stop-color="#A9C7FF" stop-opacity="0.55"/>
      <stop offset="1" stop-color="#A9C7FF" stop-opacity="0"/>
    </radialGradient>
    <filter id="to-shadow" x="-20%" y="-20%" width="140%" height="140%">
      <feDropShadow dx="0" dy="18" stdDeviation="30" flood-color="#1a103f" flood-opacity="0.35"/>
    </filter>
  </defs>
  <rect width="1200" height="1000" fill="url(#to-bg)"/>
  <rect width="1200" height="1000" fill="url(#to-glow)"/>
  <rect x="70" y="70" width="300" height="60" rx="8" fill="#F59E0B"/>
  <text x="92" y="113" font-size="40" font-weight="800" fill="#FFFFFF" letter-spacing="-1">END-TO-END</text>
  <text x="70" y="210" font-size="76" font-weight="800" fill="#FFFFFF" letter-spacing="-2">Full-Stack Ownership</text>
  <rect x="70" y="270" width="1060" height="660" rx="22" fill="#FFFFFF" filter="url(#to-shadow)"/>
  <text x="110" y="340" font-size="26" font-weight="700" fill="#0F172A">Feature Squad</text>
  <rect x="900" y="316" width="190" height="40" rx="20" fill="#E6F6EF"/>
  <circle cx="928" cy="336" r="7" fill="#12825F"/>
  <text x="944" y="343" font-size="18" font-weight="600" fill="#12825F">Shipped to prod</text>
  <line x1="110" y1="372" x2="1090" y2="372" stroke="#EEF1F5" stroke-width="2"/>
  <circle cx="150" cy="450" r="28" fill="#3B82F6"/><text x="150" y="458" font-size="22" font-weight="700" fill="#fff" text-anchor="middle">H</text>
  <circle cx="206" cy="450" r="28" fill="#12825F"/><text x="206" y="458" font-size="22" font-weight="700" fill="#fff" text-anchor="middle">A</text>
  <circle cx="262" cy="450" r="28" fill="#F59E0B"/><text x="262" y="458" font-size="22" font-weight="700" fill="#fff" text-anchor="middle">R</text>
  <circle cx="318" cy="450" r="28" fill="#8B5CF6"/><text x="318" y="458" font-size="22" font-weight="700" fill="#fff" text-anchor="middle">K</text>
  <text x="368" y="458" font-size="20" font-weight="600" fill="#64748B">4-member team · lead</text>
  <rect x="110" y="510" width="300" height="360" rx="16" fill="#F8FAFC" stroke="#E6EAF0" stroke-width="2"/>
  <rect x="134" y="536" width="44" height="44" rx="10" fill="#DBEAFE"/>
  <text x="156" y="566" font-size="24" text-anchor="middle">⚛</text>
  <text x="194" y="556" font-size="22" font-weight="700" fill="#0F172A">Frontend</text>
  <text x="194" y="580" font-size="15" fill="#94A3B8">React · Zustand</text>
  <rect x="134" y="610" width="252" height="34" rx="8" fill="#EAF1FB"/><text x="150" y="633" font-size="15" font-weight="600" fill="#2563EB">Component library</text>
  <rect x="134" y="656" width="252" height="34" rx="8" fill="#EAF1FB"/><text x="150" y="679" font-size="15" font-weight="600" fill="#2563EB">TanStack Query</text>
  <rect x="134" y="702" width="252" height="34" rx="8" fill="#F1F5F9"/><text x="150" y="725" font-size="15" font-weight="600" fill="#64748B">Responsive UI</text>
  <rect x="134" y="748" width="252" height="34" rx="8" fill="#F1F5F9"/><text x="150" y="771" font-size="15" font-weight="600" fill="#64748B">Design system</text>
  <rect x="450" y="510" width="300" height="360" rx="16" fill="#F8FAFC" stroke="#E6EAF0" stroke-width="2"/>
  <rect x="474" y="536" width="44" height="44" rx="10" fill="#D1FAE5"/>
  <text x="496" y="566" font-size="24" text-anchor="middle">⚙</text>
  <text x="534" y="556" font-size="22" font-weight="700" fill="#0F172A">Backend</text>
  <text x="534" y="580" font-size="15" fill="#94A3B8">Node.js · Go</text>
  <rect x="474" y="610" width="252" height="34" rx="8" fill="#E6F6EF"/><text x="490" y="633" font-size="15" font-weight="600" fill="#12825F">REST APIs</text>
  <rect x="474" y="656" width="252" height="34" rx="8" fill="#E6F6EF"/><text x="490" y="679" font-size="15" font-weight="600" fill="#12825F">Auth &amp; RBAC</text>
  <rect x="474" y="702" width="252" height="34" rx="8" fill="#F1F5F9"/><text x="490" y="725" font-size="15" font-weight="600" fill="#64748B">Business logic</text>
  <rect x="474" y="748" width="252" height="34" rx="8" fill="#F1F5F9"/><text x="490" y="771" font-size="15" font-weight="600" fill="#64748B">Job workers</text>
  <rect x="790" y="510" width="300" height="360" rx="16" fill="#F8FAFC" stroke="#E6EAF0" stroke-width="2"/>
  <rect x="814" y="536" width="44" height="44" rx="10" fill="#FEF3C7"/>
  <text x="836" y="566" font-size="24" text-anchor="middle">🗄</text>
  <text x="874" y="556" font-size="22" font-weight="700" fill="#0F172A">Data</text>
  <text x="874" y="580" font-size="15" fill="#94A3B8">Postgres · Kafka</text>
  <rect x="814" y="610" width="252" height="34" rx="8" fill="#FDF6E3"/><text x="830" y="633" font-size="15" font-weight="600" fill="#B45309">Schema design</text>
  <rect x="814" y="656" width="252" height="34" rx="8" fill="#FDF6E3"/><text x="830" y="679" font-size="15" font-weight="600" fill="#B45309">Event streams</text>
  <rect x="814" y="702" width="252" height="34" rx="8" fill="#F1F5F9"/><text x="830" y="725" font-size="15" font-weight="600" fill="#64748B">Migrations</text>
  <rect x="814" y="748" width="252" height="34" rx="8" fill="#F1F5F9"/><text x="830" y="771" font-size="15" font-weight="600" fill="#64748B">Caching</text>
  <line x1="410" y1="690" x2="450" y2="690" stroke="#CBD5E1" stroke-width="3" stroke-dasharray="6 6"/>
  <line x1="750" y1="690" x2="790" y2="690" stroke="#CBD5E1" stroke-width="3" stroke-dasharray="6 6"/>
</svg>
